<svg width="101" height="17" viewBox="0 0 101 17" fill="none" xmlns="http://www.w3.org/2000/svg">
<g opacity="0.6">
<path d="M19.3909 1.00841C18.5904 1.57307 17.704 2.00495 16.766 2.28741C16.2625 1.70852 15.5934 1.29822 14.8492 1.112C14.1049 0.925781 13.3215 0.972624 12.6047 1.24619C11.888 1.51977 11.2725 2.00686 10.8416 2.64161C10.4107 3.27636 10.1852 4.02813 10.1954 4.79525V5.6312C8.72637 5.6693 7.27068 5.34348 5.95802 4.68277C4.64536 4.02207 3.51647 3.04698 2.6719 1.84435C2.6719 1.84435 -0.671898 9.36789 6.85164 12.7117C5.13003 13.8803 3.07914 14.4663 1 14.3836C8.52354 18.5633 17.719 14.3836 17.719 4.77018C17.7182 4.53733 17.6958 4.30505 17.6521 4.07634C18.5053 3.23495 19.1073 2.17264 19.3909 1.00841V1.00841Z" stroke="white" stroke-linecap="round" stroke-linejoin="round"/>
<path d="M53.8906 5.5C55.0841 5.5 56.2287 5.97411 57.0726 6.81802C57.9165 7.66193 58.3906 8.80653 58.3906 10V15.25H55.3906V10C55.3906 9.60218 55.2326 9.22064 54.9513 8.93934C54.67 8.65804 54.2884 8.5 53.8906 8.5C53.4928 8.5 53.1113 8.65804 52.83 8.93934C52.5487 9.22064 52.3906 9.60218 52.3906 10V15.25H49.3906V10C49.3906 8.80653 49.8647 7.66193 50.7086 6.81802C51.5526 5.97411 52.6972 5.5 53.8906 5.5V5.5Z" stroke="white" stroke-linecap="round" stroke-linejoin="round"/>
<path d="M46.3906 6.25H43.3906V15.25H46.3906V6.25Z" stroke="white" stroke-linecap="round" stroke-linejoin="round"/>
<path d="M44.8906 4C45.7191 4 46.3906 3.32843 46.3906 2.5C46.3906 1.67157 45.7191 1 44.8906 1C44.0622 1 43.3906 1.67157 43.3906 2.5C43.3906 3.32843 44.0622 4 44.8906 4Z" stroke="white" stroke-linecap="round" stroke-linejoin="round"/>
<path d="M100.014 2.9799C99.9166 2.59162 99.7187 2.23586 99.44 1.94856C99.1613 1.66125 98.8118 1.45258 98.4266 1.34362C97.0194 1 91.3906 1 91.3906 1C91.3906 1 85.7618 1 84.3546 1.37634C83.9695 1.48531 83.6199 1.69398 83.3412 1.98128C83.0626 2.26858 82.8646 2.62434 82.7674 3.01262C82.5099 4.44073 82.3839 5.88945 82.3911 7.34058C82.3819 8.80263 82.5079 10.2624 82.7674 11.7013C82.8746 12.0775 83.0769 12.4197 83.355 12.6949C83.633 12.97 83.9773 13.1689 84.3546 13.2721C85.7618 13.6484 91.3906 13.6484 91.3906 13.6484C91.3906 13.6484 97.0194 13.6484 98.4266 13.2721C98.8118 13.1631 99.1613 12.9545 99.44 12.6672C99.7187 12.3799 99.9166 12.0241 100.014 11.6358C100.269 10.2185 100.395 8.78078 100.39 7.34058C100.399 5.87853 100.273 4.41876 100.014 2.9799V2.9799Z" stroke="white" stroke-linecap="round" stroke-linejoin="round"/>
<path d="M89.5498 10.0157L94.2541 7.34035L89.5498 4.66504V10.0157Z" stroke="white" stroke-linecap="round" stroke-linejoin="round"/>
</g>
</svg>
